<?xml version="1.0" encoding="utf-8"?>
<!-- Generator: Adobe Illustrator 27.7.0, SVG Export Plug-In . SVG Version: 6.00 Build 0)  -->
<svg version="1.1" xmlns="http://www.w3.org/2000/svg" xmlns:xlink="http://www.w3.org/1999/xlink" x="0px" y="0px"
	 viewBox="0 0 595.3 841.9" style="enable-background:new 0 0 595.3 841.9;" xml:space="preserve">
<style type="text/css">
	.st0{fill-opacity:0;stroke:#000000;stroke-width:2;}
	.st1{font-family:'Consolas';}
	.st2{font-size:11px;}
	.st3{fill:none;stroke:#000000;stroke-width:2;stroke-linecap:square;}
	.st4{font-size:10px;}
	.st5{fill:none;stroke:#231F20;stroke-width:2;stroke-miterlimit:10;}
	.st6{fill:none;}
	.st7{font-size:20px;}
	.st8{fill:none;stroke:#000000;stroke-width:2;stroke-miterlimit:10;}
	.st9{fill:none;stroke:#9ADBEF;stroke-miterlimit:10;}
	.st10{fill:#ED891B;}
	.st11{opacity:0.8;fill:none;stroke:#000000;stroke-width:2;stroke-miterlimit:10;}
	.st12{opacity:0.6;fill:none;stroke:#EA1818;stroke-width:2;stroke-miterlimit:10;}
	.st13{opacity:0.81;fill:none;stroke:#B21CEA;stroke-width:2;stroke-miterlimit:10;}
	.st14{opacity:0.81;fill:none;stroke:#1CEAC7;stroke-width:2;stroke-miterlimit:10;}
	.st15{opacity:0.81;fill:none;stroke:#1C44EA;stroke-width:2;stroke-miterlimit:10;}
	.st16{opacity:0.81;fill:none;stroke:#ED891B;stroke-width:2;stroke-miterlimit:10;}
	.st17{opacity:0.81;stroke:#ED891B;stroke-width:2;stroke-miterlimit:10;}
	.st18{display:none;}
	.st19{display:inline;fill:none;}
	.st20{display:inline;}
	.st21{display:inline;fill:none;stroke:#231F20;stroke-width:2;stroke-miterlimit:10;}
	.st22{display:inline;fill:none;stroke:#000000;stroke-width:2;stroke-miterlimit:10;}
	.st23{display:inline;fill-opacity:0;stroke:#000000;stroke-width:2;}
	.st24{display:inline;fill:none;stroke:#000000;stroke-width:2;stroke-linecap:square;}
	.st25{display:inline;fill-opacity:0;stroke:#000000;stroke-width:2;stroke-linecap:square;}
	.st26{display:inline;opacity:0.6;fill:none;stroke:#EA1818;stroke-width:2;stroke-miterlimit:10;}
</style>
<g id="Esp32">
	<rect x="269.4" y="399.8" class="st0" width="100" height="190"/>
	<text transform="matrix(1 0 0 1 302.2532 389.7655)" class="st1 st2">ESP32</text>
	<line class="st3" x1="259.4" y1="409.8" x2="269.4" y2="409.8"/>
	<text transform="matrix(1 0 0 1 273.3762 409.7655)" class="st1 st4">EN</text>
	<line class="st3" x1="369.4" y1="409.8" x2="379.4" y2="409.8"/>
	<text transform="matrix(1 0 0 1 329.2483 409.7655)" class="st1 st4">GPIO23</text>
	<line class="st3" x1="259.4" y1="419.8" x2="269.4" y2="419.8"/>
	<text transform="matrix(1 0 0 1 273.3762 419.7655)" class="st1 st4">GPIO36</text>
	<line class="st3" x1="369.4" y1="419.8" x2="379.4" y2="419.8"/>
	<text transform="matrix(1 0 0 1 329.2483 419.7655)" class="st1 st4">GPIO22</text>
	<line class="st3" x1="259.4" y1="429.8" x2="269.4" y2="429.8"/>
	<text transform="matrix(1 0 0 1 273.3762 429.7655)" class="st1 st4">GPIO39</text>
	<line class="st3" x1="369.4" y1="429.8" x2="379.4" y2="429.8"/>
	<text transform="matrix(1 0 0 1 334.8098 429.7655)" class="st1 st4">GPIO1</text>
	<line class="st3" x1="259.4" y1="439.8" x2="269.4" y2="439.8"/>
	<text transform="matrix(1 0 0 1 273.3762 439.7655)" class="st1 st4">GPIO34</text>
	<line class="st3" x1="369.4" y1="439.8" x2="379.4" y2="439.8"/>
	<text transform="matrix(1 0 0 1 334.8098 439.7655)" class="st1 st4">GPIO3</text>
	<line class="st3" x1="259.4" y1="449.8" x2="269.4" y2="449.8"/>
	<text transform="matrix(1 0 0 1 273.3762 449.7655)" class="st1 st4">GPIO35</text>
	<line class="st3" x1="369.4" y1="449.8" x2="379.4" y2="449.8"/>
	<text transform="matrix(1 0 0 1 329.2483 449.7655)" class="st1 st4">GPIO21</text>
	<line class="st3" x1="259.4" y1="459.8" x2="269.4" y2="459.8"/>
	<text transform="matrix(1 0 0 1 273.3762 459.7655)" class="st1 st4">GPIO32</text>
	<line class="st3" x1="369.4" y1="459.8" x2="379.4" y2="459.8"/>
	<text transform="matrix(1 0 0 1 329.2483 459.7655)" class="st1 st4">GPIO19</text>
	<line class="st3" x1="259.4" y1="469.8" x2="269.4" y2="469.8"/>
	<text transform="matrix(1 0 0 1 273.3762 469.7655)" class="st1 st4">GPIO33</text>
	<line class="st3" x1="369.4" y1="469.8" x2="379.4" y2="469.8"/>
	<text transform="matrix(1 0 0 1 329.2483 469.7655)" class="st1 st4">GPIO18</text>
	<line class="st3" x1="259.4" y1="479.8" x2="269.4" y2="479.8"/>
	<text transform="matrix(1 0 0 1 273.3762 479.7655)" class="st1 st4">GPIO25</text>
	<line class="st3" x1="369.4" y1="479.8" x2="379.4" y2="479.8"/>
	<text transform="matrix(1 0 0 1 334.8098 479.7655)" class="st1 st4">GPIO5</text>
	<line class="st3" x1="259.4" y1="489.8" x2="269.4" y2="489.8"/>
	<text transform="matrix(1 0 0 1 273.3762 489.7655)" class="st1 st4">GPIO26</text>
	<line class="st3" x1="369.4" y1="489.8" x2="379.4" y2="489.8"/>
	<text transform="matrix(1 0 0 1 329.2483 489.7655)" class="st1 st4">GPIO17</text>
	<line class="st3" x1="259.4" y1="499.8" x2="269.4" y2="499.8"/>
	<text transform="matrix(1 0 0 1 273.3762 499.7655)" class="st1 st4">GPIO27</text>
	<line class="st3" x1="369.4" y1="499.8" x2="379.4" y2="499.8"/>
	<text transform="matrix(1 0 0 1 329.2483 499.7655)" class="st1 st4">GPIO16</text>
	<line class="st3" x1="259.4" y1="509.8" x2="269.4" y2="509.8"/>
	<text transform="matrix(1 0 0 1 273.3762 509.7655)" class="st1 st4">GPIO14</text>
	<line class="st3" x1="369.4" y1="509.8" x2="379.4" y2="509.8"/>
	<text transform="matrix(1 0 0 1 334.8098 509.7655)" class="st1 st4">GPIO4</text>
	<line class="st3" x1="259.4" y1="519.8" x2="269.4" y2="519.8"/>
	<text transform="matrix(1 0 0 1 273.3762 519.7655)" class="st1 st4">GPIO12</text>
	<line class="st3" x1="369.4" y1="519.8" x2="379.4" y2="519.8"/>
	<text transform="matrix(1 0 0 1 334.8098 519.7655)" class="st1 st4">GPIO2</text>
	<line class="st3" x1="259.4" y1="529.8" x2="269.4" y2="529.8"/>
	<text transform="matrix(1 0 0 1 273.3762 529.7655)" class="st1 st4">GPIO13</text>
	<line class="st3" x1="369.4" y1="529.8" x2="379.4" y2="529.8"/>
	<text transform="matrix(1 0 0 1 329.2483 529.7655)" class="st1 st4">GPIO15</text>
	<line class="st3" x1="259.4" y1="539.8" x2="269.4" y2="539.8"/>
	<text transform="matrix(1 0 0 1 273.3762 539.7656)" class="st1 st4">GPIO9</text>
	<line class="st3" x1="369.4" y1="539.8" x2="379.4" y2="539.8"/>
	<text transform="matrix(1 0 0 1 334.8098 539.7656)" class="st1 st4">GPIO0</text>
	<line class="st3" x1="259.4" y1="549.8" x2="269.4" y2="549.8"/>
	<text transform="matrix(1 0 0 1 273.3762 549.7656)" class="st1 st4">GPIO10</text>
	<line class="st3" x1="369.4" y1="549.8" x2="379.4" y2="549.8"/>
	<text transform="matrix(1 0 0 1 334.8098 549.7656)" class="st1 st4">GPIO8</text>
	<line class="st3" x1="259.4" y1="559.8" x2="269.4" y2="559.8"/>
	<text transform="matrix(1 0 0 1 273.3762 559.7656)" class="st1 st4">GPIO11</text>
	<line class="st3" x1="369.4" y1="559.8" x2="379.4" y2="559.8"/>
	<text transform="matrix(1 0 0 1 334.8098 559.7656)" class="st1 st4">GPIO7</text>
	<line class="st3" x1="259.4" y1="569.8" x2="269.4" y2="569.8"/>
	<text transform="matrix(1 0 0 1 273.3762 569.7656)" class="st1 st4">GND</text>
	<line class="st3" x1="369.4" y1="569.8" x2="379.4" y2="569.8"/>
	<text transform="matrix(1 0 0 1 334.8098 569.7656)" class="st1 st4">GPIO6</text>
	<line class="st3" x1="259.4" y1="579.8" x2="269.4" y2="579.8"/>
	<text transform="matrix(1 0 0 1 273.3762 579.7656)" class="st1 st4">VIN</text>
	<line class="st3" x1="369.4" y1="579.8" x2="379.4" y2="579.8"/>
	<text transform="matrix(1 0 0 1 347.5833 579.7656)" class="st1 st4">3V3</text>
</g>
<g id="components">
	<g>
		<rect x="480" y="609.7" class="st5" width="38.2" height="38.2"/>
		<circle class="st5" cx="499.1" cy="628.9" r="13.9"/>
		<line class="st5" x1="518.3" y1="617" x2="531.5" y2="617"/>
		<line class="st5" x1="518.3" y1="639.4" x2="531.5" y2="639.4"/>
		<line class="st5" x1="466.8" y1="617" x2="480" y2="617"/>
		<line class="st5" x1="480" y1="639.4" x2="466.8" y2="639.4"/>
	</g>
	<g>
		<rect x="480" y="654.3" class="st5" width="38.2" height="38.2"/>
		<circle class="st5" cx="499.1" cy="673.4" r="13.9"/>
		<line class="st5" x1="518.3" y1="661.6" x2="531.5" y2="661.6"/>
		<line class="st5" x1="518.3" y1="684" x2="531.5" y2="684"/>
		<line class="st5" x1="466.8" y1="661.6" x2="480" y2="661.6"/>
		<line class="st5" x1="466.8" y1="684" x2="480" y2="684"/>
	</g>
	<g>
		<rect x="480" y="698.9" class="st5" width="38.2" height="38.2"/>
		<circle class="st5" cx="499.1" cy="718" r="13.9"/>
		<line class="st5" x1="518.3" y1="706.2" x2="531.5" y2="706.2"/>
		<line class="st5" x1="518.3" y1="728.5" x2="531.5" y2="728.5"/>
		<line class="st5" x1="466.8" y1="706.2" x2="480" y2="706.2"/>
		<line class="st5" x1="466.8" y1="728.5" x2="480" y2="728.5"/>
	</g>
	<rect x="37" y="759.4" class="st5" width="74.7" height="46.4"/>
	<line class="st5" x1="95" y1="771.8" x2="106.8" y2="771.8"/>
	<line class="st5" x1="100.9" y1="765.9" x2="100.9" y2="777.8"/>
	<line class="st5" x1="95" y1="793.6" x2="106.8" y2="793.6"/>
	<rect x="42.3" y="774" class="st6" width="40.1" height="27.1"/>
	<text transform="matrix(1 0 0 1 42.2808 787.8449)" class="st1 st7">12v</text>
	<rect x="50.4" y="171.5" class="st6" width="119.9" height="10.2"/>
	<text transform="matrix(1 0 0 1 50.3931 179.0974)" class="st1 st2">12v Solenoid Valves</text>
	<rect x="83.3" y="568.4" class="st6" width="119.9" height="10.2"/>
	<text transform="matrix(1 0 0 1 83.3342 575.9427)" class="st1 st2">ULN2003</text>
	<rect x="437.7" y="145.3" class="st6" width="104.3" height="10.2"/>
	<text transform="matrix(1 0 0 1 437.6858 152.9301)" class="st1 st2">12v Membrane Pump</text>
	<rect x="429.2" y="399.9" class="st6" width="37.7" height="10.2"/>
	<text transform="matrix(1 0 0 1 429.2373 407.451)" class="st1 st2">Mosfet</text>
	<rect x="468.3" y="415.6" class="st6" width="18.8" height="10.2"/>
	<text transform="matrix(1 0 0 1 468.2756 423.1823)" class="st1 st2">OUT</text>
	<rect x="486.5" y="415.9" class="st6" width="18.8" height="10.2"/>
	<text transform="matrix(1 0 0 1 486.5306 423.4451)" class="st1 st2">GND</text>
	<rect x="430.9" y="445.2" class="st6" width="20.6" height="10.2"/>
	<text transform="matrix(1 0 0 1 430.9472 452.8353)" class="st1 st2">SIG</text>
	<rect x="266.8" y="775.8" class="st6" width="90" height="10.2"/>
	<text transform="matrix(1 0 0 1 269.4407 783.3525)" class="st1 st2">PC running LLM</text>
	<rect x="139.5" y="502.7" class="st6" width="19.5" height="52.8"/>
	<text transform="matrix(1 0 0 1 139.4673 510.2502)"><tspan x="0" y="0" class="st1 st2">in1</tspan><tspan x="0" y="13.2" class="st1 st2">in2</tspan><tspan x="0" y="26.4" class="st1 st2">in3</tspan><tspan x="0" y="39.6" class="st1 st2">in4</tspan></text>
	<rect x="57" y="490.2" class="st6" width="27.5" height="52.8"/>
	<text transform="matrix(1 0 0 1 57.045 497.8291)"><tspan x="0" y="0" class="st1 st2">out1</tspan><tspan x="0" y="13.2" class="st1 st2">out2</tspan><tspan x="0" y="26.4" class="st1 st2">out3</tspan><tspan x="0" y="39.6" class="st1 st2">out4</tspan></text>
	<rect x="61" y="189.8" class="st8" width="98.7" height="49.4"/>
	<circle class="st8" cx="82.1" cy="214.5" r="8.6"/>
	<circle class="st8" cx="519.9" cy="274.9" r="8.6"/>
	<path class="st8" d="M60.6,223.1h-5.4c-3.3,0-5.9-2.7-5.9-5.9v-5.4c0-3.3,2.7-5.9,5.9-5.9h5.4"/>
	<path class="st8" d="M478,189.8v-5.4c0-3.3,2.7-5.9,5.9-5.9h5.4c3.3,0,5.9,2.7,5.9,5.9v5.4"/>
	<line class="st5" x1="139.6" y1="204.6" x2="151.4" y2="204.6"/>
	<line class="st5" x1="145.5" y1="198.7" x2="145.5" y2="210.6"/>
	<line class="st5" x1="139.6" y1="226.4" x2="151.4" y2="226.4"/>
	<line class="st5" x1="477.5" y1="346.6" x2="477.5" y2="358.4"/>
	<line class="st5" x1="483.4" y1="352.5" x2="471.6" y2="352.5"/>
	<line class="st5" x1="489.8" y1="352.5" x2="501.7" y2="352.5"/>
	<line class="st5" x1="125" y1="455.5" x2="125" y2="467.4"/>
	<line class="st5" x1="131" y1="461.5" x2="119.1" y2="461.5"/>
	<line class="st5" x1="137.4" y1="461.5" x2="149.2" y2="461.5"/>
	<path class="st8" d="M526.2,290.9h-79.1c-6.1,0-11-4.9-11-11v-79.1c0-6.1,4.9-11,11-11h79.1c6.1,0,11,4.9,11,11v79.1
		C537.2,286,532.3,290.9,526.2,290.9z"/>
	<path class="st8" d="M522.4,290.9v62.7c0,4.5-3.6,8.1-8.1,8.1h-55.4c-4.5,0-8.1-3.6-8.1-8.1v-62.7"/>
	<g>
		<line class="st9" x1="503.3" y1="180.5" x2="503.3" y2="164.7"/>
		<line class="st9" x1="500.7" y1="184.1" x2="500.7" y2="173.6"/>
		<polyline class="st9" points="499.4,165.2 503.4,161.2 507.2,165.1 		"/>
	</g>
	<g>
		<line class="st9" x1="22.9" y1="214.5" x2="38.7" y2="214.5"/>
		<line class="st9" x1="19.3" y1="211.9" x2="29.9" y2="211.9"/>
		<polyline class="st9" points="38.3,210.6 42.3,214.5 38.4,218.4 		"/>
	</g>
	<line class="st8" x1="159.7" y1="204.6" x2="167.8" y2="204.6"/>
	<line class="st8" x1="159.7" y1="226.4" x2="167.8" y2="226.4"/>
	<rect x="61" y="243.3" class="st8" width="98.7" height="49.4"/>
	<circle class="st8" cx="82.1" cy="268" r="8.6"/>
	<path class="st8" d="M60.6,276.6h-5.4c-3.3,0-5.9-2.7-5.9-5.9v-5.4c0-3.3,2.7-5.9,5.9-5.9h5.4"/>
	<line class="st5" x1="139.6" y1="258.2" x2="151.4" y2="258.2"/>
	<line class="st5" x1="145.5" y1="252.2" x2="145.5" y2="264.1"/>
	<line class="st5" x1="139.6" y1="279.9" x2="151.4" y2="279.9"/>
	<g>
		<line class="st9" x1="22.9" y1="268" x2="38.7" y2="268"/>
		<line class="st9" x1="19.3" y1="265.4" x2="29.9" y2="265.4"/>
		<polyline class="st9" points="38.3,264.1 42.3,268.1 38.4,271.9 		"/>
	</g>
	<line class="st8" x1="159.7" y1="258.2" x2="167.8" y2="258.2"/>
	<line class="st8" x1="159.7" y1="279.9" x2="167.8" y2="279.9"/>
	<rect x="61" y="296.9" class="st8" width="98.7" height="49.4"/>
	<circle class="st8" cx="82.1" cy="321.6" r="8.6"/>
	<path class="st8" d="M60.6,330.2h-5.4c-3.3,0-5.9-2.7-5.9-5.9v-5.4c0-3.3,2.7-5.9,5.9-5.9h5.4"/>
	<line class="st5" x1="139.6" y1="311.7" x2="151.4" y2="311.7"/>
	<line class="st5" x1="145.5" y1="305.8" x2="145.5" y2="317.6"/>
	<line class="st5" x1="139.6" y1="333.4" x2="151.4" y2="333.4"/>
	<g>
		<line class="st9" x1="22.9" y1="321.6" x2="38.7" y2="321.6"/>
		<line class="st9" x1="19.3" y1="319" x2="29.9" y2="319"/>
		<polyline class="st9" points="38.3,317.6 42.3,321.6 38.4,325.5 		"/>
	</g>
	<line class="st8" x1="159.7" y1="311.7" x2="167.8" y2="311.7"/>
	<line class="st8" x1="159.7" y1="333.4" x2="167.8" y2="333.4"/>
	<rect x="61" y="350.4" class="st8" width="98.7" height="49.4"/>
	<circle class="st8" cx="82.1" cy="375.1" r="8.6"/>
	<path class="st8" d="M60.6,383.7h-5.4c-3.3,0-5.9-2.7-5.9-5.9v-5.4c0-3.3,2.7-5.9,5.9-5.9h5.4"/>
	<line class="st5" x1="139.6" y1="365.2" x2="151.4" y2="365.2"/>
	<line class="st5" x1="145.5" y1="359.3" x2="145.5" y2="371.2"/>
	<line class="st5" x1="139.6" y1="386.9" x2="151.4" y2="386.9"/>
	<g>
		<line class="st9" x1="22.9" y1="375.1" x2="38.7" y2="375.1"/>
		<line class="st9" x1="19.3" y1="372.5" x2="29.9" y2="372.5"/>
		<polyline class="st9" points="38.3,371.2 42.3,375.1 38.4,379 		"/>
	</g>
	<line class="st8" x1="159.7" y1="365.2" x2="167.8" y2="365.2"/>
	<line class="st8" x1="171.4" y1="507.4" x2="163.4" y2="507.4"/>
	<line class="st8" x1="171.4" y1="520.2" x2="163.4" y2="520.2"/>
	<line class="st8" x1="171.4" y1="533" x2="163.4" y2="533"/>
	<line class="st8" x1="428.4" y1="423.7" x2="420.3" y2="423.7"/>
	<line class="st8" x1="428.4" y1="436.5" x2="420.3" y2="436.5"/>
	<line class="st8" x1="428.4" y1="449.3" x2="420.3" y2="449.3"/>
	<line class="st8" x1="171.4" y1="545.7" x2="163.4" y2="545.7"/>
	<line class="st8" x1="50.3" y1="495.9" x2="42.2" y2="495.9"/>
	<line class="st8" x1="50.3" y1="508.7" x2="42.2" y2="508.7"/>
	<line class="st8" x1="50.3" y1="521.5" x2="42.2" y2="521.5"/>
	<line class="st8" x1="50.3" y1="534.2" x2="42.2" y2="534.2"/>
	<path class="st8" d="M143.3,450.8"/>
	<line class="st8" x1="125" y1="450.8" x2="125" y2="442.7"/>
	<line class="st8" x1="495.8" y1="369.8" x2="495.8" y2="361.7"/>
	<line class="st8" x1="477.5" y1="369.8" x2="477.5" y2="361.7"/>
	<line class="st5" x1="477.7" y1="446.3" x2="477.7" y2="458.2"/>
	<line class="st5" x1="483.6" y1="452.3" x2="471.7" y2="452.3"/>
	<line class="st5" x1="490" y1="452.3" x2="501.9" y2="452.3"/>
	<line class="st5" x1="438.5" y1="417.8" x2="438.5" y2="429.7"/>
	<line class="st5" x1="444.4" y1="423.7" x2="432.6" y2="423.7"/>
	<line class="st5" x1="432.6" y1="436.5" x2="444.4" y2="436.5"/>
	<line class="st8" x1="495.9" y1="413" x2="495.9" y2="405"/>
	<line class="st8" x1="477.7" y1="413" x2="477.7" y2="405"/>
	<line class="st8" x1="495.9" y1="469" x2="495.9" y2="460.9"/>
	<line class="st8" x1="477.7" y1="469" x2="477.7" y2="460.9"/>
	<line class="st8" x1="159.7" y1="386.9" x2="167.8" y2="386.9"/>
	<line class="st8" x1="111.7" y1="771.8" x2="119.8" y2="771.8"/>
	<line class="st8" x1="111.7" y1="793.5" x2="119.8" y2="793.5"/>
	<rect x="50.3" y="450.8" class="st8" width="113.1" height="113.1"/>
	<rect x="480" y="595.6" class="st6" width="38.2" height="10.2"/>
	<text transform="matrix(1 0 0 1 480.0341 603.1536)" class="st1 st2">Button</text>
	<rect x="526.6" y="623.8" class="st6" width="38.2" height="10.2"/>
	<text transform="matrix(1 0 0 1 526.5869 631.3613)" class="st1 st2">Mode 0</text>
	<rect x="526.9" y="668.3" class="st6" width="38.2" height="10.2"/>
	<text transform="matrix(1 0 0 1 526.851 675.9232)" class="st1 st2">Mode 1</text>
	<rect x="526.9" y="712.9" class="st6" width="38.2" height="10.2"/>
	<text transform="matrix(1 0 0 1 526.851 720.4849)" class="st1 st2">Mode 2</text>
	<g>
		<path class="st10" d="M325.7,737.1c-0.4,0-0.7-0.1-1-0.2c-0.3-0.1-0.6-0.3-0.8-0.5c-0.2-0.2-0.4-0.5-0.5-0.8
			c-0.1-0.3-0.2-0.7-0.2-1.1c0-0.4,0.1-0.8,0.2-1.1c0.1-0.3,0.3-0.6,0.5-0.7c0.2-0.2,0.5-0.3,0.8-0.4c0.3-0.1,0.6-0.1,1-0.1h4.7v1
			h-4.6c-0.3,0-0.5,0-0.7,0.1c-0.2,0.1-0.4,0.1-0.5,0.3s-0.2,0.3-0.3,0.5c-0.1,0.2-0.1,0.4-0.1,0.7c0,0.5,0.1,0.9,0.4,1.1
			c0.3,0.2,0.7,0.4,1.2,0.4h4.6v1H325.7z"/>
		<path class="st10" d="M323.2,743.7v-1l1.5-0.5v-2.9l-1.5-0.5v-1l7,2.3v1.3L323.2,743.7z M325.6,741.9l3.8-1.2l-3.8-1.2V741.9z"/>
		<path class="st10" d="M323.2,749.4v-1.1l2.2-1c0.2-0.1,0.3-0.2,0.4-0.2c0.1-0.1,0.2-0.2,0.3-0.3s0.1-0.2,0.1-0.3
			c0-0.1,0-0.2,0-0.4v-0.5h-3.1v-1h7v1.9c0,0.4,0,0.8-0.1,1.1c-0.1,0.3-0.2,0.5-0.4,0.7c-0.2,0.2-0.4,0.3-0.6,0.4
			c-0.2,0.1-0.5,0.1-0.8,0.1c-0.2,0-0.4,0-0.6-0.1s-0.4-0.2-0.5-0.3s-0.3-0.3-0.4-0.5c-0.1-0.2-0.2-0.4-0.3-0.6
			c-0.1,0.2-0.2,0.4-0.4,0.5c-0.2,0.1-0.4,0.3-0.7,0.4L323.2,749.4z M328.3,747.9c0.4,0,0.7-0.1,0.8-0.4c0.2-0.2,0.3-0.6,0.3-1v-0.9
			h-2.3v0.8c0,0.2,0,0.4,0.1,0.6c0.1,0.2,0.1,0.3,0.2,0.5c0.1,0.1,0.2,0.2,0.4,0.3C328,747.8,328.1,747.9,328.3,747.9z"/>
		<path class="st10" d="M329.5,755.4v-2.1h-6.2v-1h6.2v-2.1h0.8v5.1H329.5z"/>
	</g>
	<rect x="240.9" y="757.9" class="st8" width="141.8" height="45.8"/>
	<rect x="428.4" y="412.5" class="st8" width="78.3" height="48"/>
</g>
<g id="wires_-">
	<path class="st11" d="M143.3,450.7c0-3.5,2.8-6.3,6.3-6.3H204c3.5,0,6.3,2.8,6.3,6.3v336.5c0,3.5-2.8,6.3-6.3,6.3h-84.2"/>
	<line class="st11" x1="258.4" y1="569.8" x2="210.2" y2="569.8"/>
	<path class="st11" d="M466.8,639.4h-12.5c-3.5,0-6.3,2.8-6.3,6.3v76.6c0,3.5-2.8,6.3-6.3,6.3H210.2"/>
	<line class="st11" x1="466.8" y1="684" x2="448.1" y2="684"/>
	<line class="st11" x1="466.8" y1="728.5" x2="448.1" y2="728.5"/>
	<line class="st11" x1="495.8" y1="369.8" x2="495.8" y2="405"/>
	<path class="st11" d="M420.3,436.5h-3.6c-3.5,0-6.3,2.8-6.3,6.3v285.8"/>
	<path class="st11" d="M495.9,469v4.5c0,3.5-2.8,6.3-6.3,6.3h-79.2"/>
</g>
<g id="wires__x2B_">
	<path class="st12" d="M167.8,204.6h48c1.6,0,2.9,1.3,2.9,2.9v561.3c0,1.6-1.3,2.9-2.9,2.9h-96"/>
	<line class="st12" x1="167.8" y1="258.2" x2="218.7" y2="258.2"/>
	<line class="st12" x1="167.8" y1="311.7" x2="218.7" y2="311.7"/>
	<line class="st12" x1="167.8" y1="365.2" x2="218.7" y2="365.2"/>
	<path class="st12" d="M125,442.7L125,442.7c0-3.3,2.7-5.9,5.9-5.9h87.7"/>
	<line class="st12" x1="477.7" y1="405" x2="477.7" y2="369.8"/>
	<path class="st12" d="M379.4,579.8h23c1.6,0,2.9-1.3,2.9-2.9V426.7c0-1.6,1.3-2.9,2.9-2.9h12.1"/>
	<path class="st12" d="M477.7,469v121.9c0,1.6-1.3,2.9-2.9,2.9h-256"/>
</g>
<g id="wires_data">
	<path class="st13" d="M167.8,226.4h19c2.1,0,3.8,1.7,3.8,3.8v197.4c0,2.1-1.7,3.8-3.8,3.8H32.7c-2.1,0-3.8,1.7-3.8,3.8v56.8
		c0,2.1,1.7,3.8,3.8,3.8h9.5"/>
	<path class="st14" d="M167.8,279.9h16c2.1,0,3.8,1.7,3.8,3.8v140c0,2.1-1.7,3.8-3.8,3.8H29c-2.1,0-3.8,1.7-3.8,3.8v73.5
		c0,2.1,1.7,3.8,3.8,3.8h13.2"/>
	<path class="st15" d="M167.8,333.4h12.4c2.1,0,3.8,1.7,3.8,3.8v83.2c0,2.1-1.7,3.8-3.8,3.8h-155c-2.1,0-3.8,1.7-3.8,3.8v89.5
		c0,2.1,1.7,3.8,3.8,3.8h17"/>
	<path class="st16" d="M167.8,386.9h8.8c2.1,0,3.8,1.7,3.8,3.8v26.3c0,2.1-1.7,3.8-3.8,3.8H21.4c-2.1,0-3.8,1.7-3.8,3.8v105.6
		c0,2.1,1.7,3.8,3.8,3.8h20.7"/>
	<path class="st16" d="M379.4,409.8l16.7,0.1c2.1,0,3.8,1.7,3.8,3.8v31.8c0,2.1,1.7,3.8,3.8,3.8h16.6"/>
	<path class="st13" d="M258.4,529.9h-1.2c-2.1,0-3.8,1.7-3.8,3.8v79.5c0,2.1,1.7,3.8,3.8,3.8h209.7"/>
	<path class="st14" d="M258.4,519.8H252c-2.1,0-3.8,1.7-3.8,3.8v134.2c0,2.1,1.7,3.8,3.8,3.8h214.8"/>
	<path class="st15" d="M258.4,509.8h-11.7c-2.1,0-3.8,1.7-3.8,3.8v188.7c0,2.1,1.7,3.8,3.8,3.8h220.1"/>
	<path class="st13" d="M171.4,507.4h48.2c3.1,0,5.7-2.5,5.7-5.7v-4.3c0-3.1,2.5-5.6,5.6-5.6h156.7c2.1,0,3.8,1.7,3.8,3.8v0.3
		c0,2.1-1.7,3.8-3.8,3.8h-8.2"/>
	<path class="st14" d="M171.4,520.2h54.5c3.1,0,5.7-2.5,5.7-5.7v-26.6c0-3.2,2.6-5.8,5.8-5.8h150.2c2.1,0,3.8,1.7,3.8,3.8l0,0
		c0,2.1-1.7,3.8-3.8,3.8H380"/>
	<path class="st15" d="M171.4,533h60.1c3.2,0,5.8-2.6,5.8-5.8v-59.3c0-3.2,2.6-5.8,5.8-5.8h144.4c2.1,0,3.8,1.7,3.8,3.8v0.1
		c0,2.1-1.7,3.8-3.8,3.8h-7.2"/>
	<line class="st17" x1="319.4" y1="589.8" x2="319.4" y2="757.9"/>
</g>
<g id="not_used_yet" class="st18">
	<rect x="260" y="171.5" class="st19" width="131.5" height="10.2"/>
	<text transform="matrix(1 0 0 1 260.0073 179.0974)" class="st20 st1 st2">Bipolar Stepper Motor</text>
	<rect x="50.4" y="577" class="st19" width="119.9" height="10.2"/>
	<text transform="matrix(1 0 0 1 50.3594 584.5829)" class="st20 st1 st2">ULN2003</text>
	<rect x="139.5" y="642.7" class="st19" width="19.5" height="52.8"/>
	<text transform="matrix(1 0 0 1 139.4673 650.2687)" class="st20"><tspan x="0" y="0" class="st1 st2">in1</tspan><tspan x="0" y="13.2" class="st1 st2">in2</tspan><tspan x="0" y="26.4" class="st1 st2">in3</tspan><tspan x="0" y="39.6" class="st1 st2">in4</tspan></text>
	<rect x="57" y="630.3" class="st19" width="27.5" height="52.8"/>
	<text transform="matrix(1 0 0 1 57.045 637.8477)" class="st20"><tspan x="0" y="0" class="st1 st2">out1</tspan><tspan x="0" y="13.2" class="st1 st2">out2</tspan><tspan x="0" y="26.4" class="st1 st2">out3</tspan><tspan x="0" y="39.6" class="st1 st2">out4</tspan></text>
	<line class="st21" x1="125" y1="595.6" x2="125" y2="607.4"/>
	<line class="st21" x1="131" y1="601.5" x2="119.1" y2="601.5"/>
	<line class="st21" x1="137.4" y1="601.5" x2="149.2" y2="601.5"/>
	<line class="st22" x1="171.4" y1="647.4" x2="163.4" y2="647.4"/>
	<line class="st22" x1="171.4" y1="660.2" x2="163.4" y2="660.2"/>
	<line class="st22" x1="171.4" y1="673" x2="163.4" y2="673"/>
	<line class="st22" x1="171.4" y1="685.7" x2="163.4" y2="685.7"/>
	<line class="st22" x1="50.3" y1="635.9" x2="42.2" y2="635.9"/>
	<line class="st22" x1="50.3" y1="648.7" x2="42.2" y2="648.7"/>
	<line class="st22" x1="50.3" y1="661.5" x2="42.2" y2="661.5"/>
	<line class="st22" x1="50.3" y1="674.2" x2="42.2" y2="674.2"/>
	<line class="st22" x1="143.3" y1="590.8" x2="143.3" y2="582.7"/>
	<line class="st22" x1="125" y1="590.8" x2="125" y2="582.7"/>
	<rect x="50.3" y="590.8" class="st22" width="113.1" height="113.1"/>
	<rect x="302.2" y="189.8" class="st23" width="51.4" height="51.4"/>
	<ellipse class="st23" cx="327.9" cy="215.5" rx="10.3" ry="10.3"/>
	<line class="st24" x1="276.6" y1="202.6" x2="302.2" y2="202.6"/>
	<text transform="matrix(1 0 0 1 279.1231 198.7917)" class="st20 st1 st2">A1</text>
	<line class="st24" x1="276.6" y1="228.3" x2="302.2" y2="228.3"/>
	<text transform="matrix(1 0 0 1 279.1231 244.2907)" class="st20 st1 st2">A2</text>
	<path class="st25" d="M302.2,202.6h3.9c3.5,0,6.4,1.4,6.4,3.2c0,1.8-2.9,3.2-6.4,3.2c3.5,0,6.4,1.4,6.4,3.2c0,1.8-2.9,3.2-6.4,3.2
		c3.5,0,6.4,1.4,6.4,3.2s-2.9,3.2-6.4,3.2c3.5,0,6.4,1.4,6.4,3.2s-2.9,3.2-6.4,3.2h-3.9"/>
	<line class="st24" x1="315.1" y1="241.2" x2="315.1" y2="266.8"/>
	<text transform="matrix(1 0 0 1 293.9454 264.2673)" class="st20 st1 st2">B1</text>
	<line class="st24" x1="340.7" y1="241.2" x2="340.7" y2="266.8"/>
	<text transform="matrix(1 0 0 1 344.5987 264.2673)" class="st20 st1 st2">B2</text>
	<path class="st25" d="M315.1,241.2v-3.9c0-3.5,1.4-6.4,3.2-6.4c1.8,0,3.2,2.9,3.2,6.4c0-3.5,1.4-6.4,3.2-6.4s3.2,2.9,3.2,6.4
		c0-3.5,1.4-6.4,3.2-6.4s3.2,2.9,3.2,6.4c0-3.5,1.4-6.4,3.2-6.4s3.2,2.9,3.2,6.4v3.9"/>
	<polyline class="st22" points="143.3,583.6 143.3,578.3 210.2,578.3 	"/>
	<polyline class="st26" points="125,582.7 125,581 218.7,581 	"/>
</g>
</svg>
